<?xml version="1.0" encoding="utf-8"?>
<!-- Generator: Adobe Illustrator 22.1.0, SVG Export Plug-In . SVG Version: 6.00 Build 0)  -->
<svg version="1.1" id="Layer_1" xmlns="http://www.w3.org/2000/svg" xmlns:xlink="http://www.w3.org/1999/xlink" x="0px" y="0px"
	 viewBox="0 0 512 512" style="enable-background:new 0 0 512 512;" xml:space="preserve">
<style type="text/css">
	.st0{fill:#FFFFFF;}
</style>
<g>
	<g>
		<g>
			<path class="st0" d="M176.6,158l-7.6-7.6l15.1-15.1l22.6,22.6c4.2,4.2,10.9,4.2,15.1,0c4.2-4.2,4.2-10.9,0-15.1l-30.2-30.2
				c-4.2-4.2-10.9-4.2-15.1,0L116.2,173c-4.2,4.2-4.2,10.9,0,15.1c2.1,2.1,4.8,3.1,7.6,3.1s5.5-1,7.5-3.1l22.6-22.6l7.6,7.6
				c2.1,2.1,4.8,3.1,7.6,3.1s5.5-1,7.5-3.1C180.7,168.9,180.7,162.1,176.6,158z"/>
			<path class="st0" d="M297.3,369.2l30.2,30.2c2.1,2.1,4.8,3.1,7.6,3.1s5.5-1,7.6-3.1c4.2-4.2,4.2-10.9,0-15.1l-22.6-22.6
				l15.1-15.1l7.5,7.5c2.1,2.1,4.8,3.1,7.6,3.1s5.5-1,7.5-3.1c4.2-4.2,4.2-10.9,0-15.1l-7.5-7.5l15.1-15.1l22.6,22.6
				c4.2,4.2,10.9,4.2,15.1,0s4.2-10.9,0-15.1l-30.2-30.2c-2-2-4.7-3.1-7.6-3.1s-5.5,1.1-7.6,3.1l-60.3,60.4
				C293.1,358.2,293.1,365,297.3,369.2z"/>
			<path class="st0" d="M236.9,173l-30,30c-0.1,0.1-0.3,0.3-0.4,0.4l-30,30c-4.2,4.2-4.2,10.9,0,15.1s10.9,4.2,15.1,0l12-12v34.6
				c0,5.9,4.8,10.7,10.7,10.7s10.7-4.8,10.6-10.7v-35c5.6,4.3,12.4,6.6,19.5,6.6c8.6,0,16.6-3.3,22.6-9.4
				c12.5-12.5,12.5-32.8,0-45.3L252,173C247.9,168.9,241.1,168.9,236.9,173z M252.1,218.3c-2,2-4.7,3.1-7.6,3.1
				c-2.9,0-5.5-1.1-7.6-3.1l-7.6-7.5l15.1-15.1l7.6,7.6C256.2,207.4,256.2,214.1,252.1,218.3z"/>
			<path class="st0" d="M236.9,308.8l30.2,30.2c2.1,2.1,4.8,3.1,7.6,3.1s5.5-1,7.6-3.1c4.2-4.2,4.2-10.9,0-15.1l-22.6-22.6
				l15.1-15.1l7.6,7.6c2.1,2.1,4.8,3.1,7.6,3.1s5.5-1,7.5-3.1c4.2-4.2,4.2-10.9,0-15.1l-7.6-7.5l15.1-15.1l22.6,22.6
				c4.2,4.2,10.9,4.2,15.1,0s4.2-10.9,0-15.1l-30.2-30.2c-4.2-4.2-10.9-4.2-15.1,0l-60.3,60.3C232.8,297.9,232.8,304.6,236.9,308.8z
				"/>
			<path class="st0" d="M432.9,118.5c-6.7-6.4-13.5-12.8-20.1-19.4c-6.6-6.6-13.1-13.4-19.5-20.1C356.4,40.1,318.1,0,256,0
				C114.8,0,0,114.8,0,256s114.8,256,256,256s256-114.8,256-256C512,193.8,471.8,155.5,432.9,118.5z M377.9,93.7
				c6.5,6.9,13.1,13.8,19.9,20.5c6.7,6.7,13.6,13.3,20.4,19.8c20.9,19.9,40.9,39.3,54.6,61.7c-6.3-2-12.9-3.5-19.6-4.7
				c-0.3-0.1-0.6-0.1-0.9-0.1c-2.6-0.4-5.2-0.9-7.8-1.3c-26.8-4.4-57.3-9.3-84.9-37c-27.7-27.7-32.6-58.1-37-84.9
				c-1.6-9.7-3.3-19.3-6.1-28.3C338.8,53,358.1,72.9,377.9,93.7z M301.5,70.9c4.6,28.5,10.4,64,43,96.6c32.6,32.6,68.1,38.4,96.6,43
				c0.4,0.1,0.8,0.1,1.2,0.2c3.6,14.7,5.7,29.9,5.7,45.3c0,105.9-86.1,192-192,192S64,361.9,64,256S150.1,64,256,64
				c15.3,0,30.5,2.1,45.3,5.7C301.4,70.1,301.4,70.5,301.5,70.9z M256,490.7C126.6,490.7,21.3,385.4,21.3,256S126.6,21.3,256,21.3
				c5.1,0,9.8,0.6,14.5,1.2c15.9,2.8,22.3,10.7,26.2,24.5c-13.4-2.6-27-4.4-40.7-4.4C138.4,42.7,42.7,138.4,42.7,256
				S138.4,469.3,256,469.3S469.3,373.6,469.3,256c0-13.8-1.8-27.3-4.4-40.7c13.8,3.9,21.8,10.3,24.5,26.2c0.6,4.7,1.2,9.5,1.2,14.5
				C490.7,385.4,385.4,490.7,256,490.7z"/>
		</g>
	</g>
</g>
</svg>
