<?xml version="1.0" encoding="utf-8"?>
<!-- Generator: Adobe Illustrator 22.1.0, SVG Export Plug-In . SVG Version: 6.00 Build 0)  -->
<svg version="1.1" id="Capa_1" xmlns="http://www.w3.org/2000/svg" xmlns:xlink="http://www.w3.org/1999/xlink" x="0px" y="0px"
	 viewBox="0 0 480 480" style="enable-background:new 0 0 480 480;" xml:space="preserve">
<style type="text/css">
	.st0{fill:#FFFFFF;}
</style>
<g>
	<g>
		<rect x="96" y="32" class="st0" width="16" height="16"/>
	</g>
</g>
<g>
	<g>
		<rect x="128" y="32" class="st0" width="16" height="16"/>
	</g>
</g>
<g>
	<g>
		<rect x="160" y="32" class="st0" width="16" height="16"/>
	</g>
</g>
<g>
	<g>
		<rect x="296" y="32" class="st0" width="152" height="16"/>
	</g>
</g>
<g>
	<g>
		<rect x="320" y="120" class="st0" width="128" height="16"/>
	</g>
</g>
<g>
	<g>
		<rect x="384" y="152" class="st0" width="64" height="16"/>
	</g>
</g>
<g>
	<g>
		<rect x="384" y="184" class="st0" width="64" height="16"/>
	</g>
</g>
<g>
	<g>
		<rect x="384" y="216" class="st0" width="64" height="16"/>
	</g>
</g>
<g>
	<g>
		<rect x="320" y="248" class="st0" width="128" height="16"/>
	</g>
</g>
<g>
	<g>
		<rect x="320" y="376" class="st0" width="128" height="16"/>
	</g>
</g>
<g>
	<g>
		<rect x="384" y="280" class="st0" width="64" height="16"/>
	</g>
</g>
<g>
	<g>
		<rect x="384" y="312" class="st0" width="64" height="16"/>
	</g>
</g>
<g>
	<g>
		<rect x="384" y="344" class="st0" width="64" height="16"/>
	</g>
</g>
<g>
	<g>
		<rect x="384" y="408" class="st0" width="64" height="16"/>
	</g>
</g>
<g>
	<g>
		<path class="st0" d="M472,0H72c-4.4,0-8,3.6-8,8v64v48H8c-3.1,0-5.9,1.8-7.2,4.5c-1.3,2.8-1,6.1,1,8.5L32,170.8V208
			c0,19.3,13.8,35.5,32,39.2V296H8c-3.1,0-5.9,1.8-7.2,4.5c-1.3,2.8-1,6.1,1,8.5L32,346.8V384c0,19.3,13.8,35.5,32,39.2V472
			c0,4.4,3.6,8,8,8h368c22.1,0,40-17.9,40-40V72V8C480,3.6,476.4,0,472,0z M48,208v-40c0-1.8-0.6-3.6-1.8-5l-21.6-27H72h176
			c13.2,0,24,10.8,24,24v48c0,13.2-10.8,24-24,24H72C58.8,232,48,221.2,48,208z M48,384v-40c0-1.8-0.6-3.6-1.8-5l-21.6-27H72h176
			c13.2,0,24,10.8,24,24v48c0,13.2-10.8,24-24,24H72C58.8,408,48,397.2,48,384z M464,440c0,13.2-10.8,24-24,24H80v-40h168
			c22.1,0,40-17.9,40-40v-48c0-22.1-17.9-40-40-40H80v-48h168c22.1,0,40-17.9,40-40v-48c0-22.1-17.9-40-40-40H80V80h384V440z
			 M464,64H80V16h384V64z"/>
	</g>
</g>
<g>
	<g>
		<rect x="72" y="160" class="st0" width="64" height="16"/>
	</g>
</g>
<g>
	<g>
		<rect x="152" y="160" class="st0" width="40" height="16"/>
	</g>
</g>
<g>
	<g>
		<rect x="208" y="160" class="st0" width="40" height="16"/>
	</g>
</g>
<g>
	<g>
		<rect x="72" y="192" class="st0" width="40" height="16"/>
	</g>
</g>
<g>
	<g>
		<rect x="128" y="192" class="st0" width="120" height="16"/>
	</g>
</g>
<g>
	<g>
		<rect x="184" y="368" class="st0" width="64" height="16"/>
	</g>
</g>
<g>
	<g>
		<rect x="128" y="368" class="st0" width="40" height="16"/>
	</g>
</g>
<g>
	<g>
		<rect x="72" y="368" class="st0" width="40" height="16"/>
	</g>
</g>
<g>
	<g>
		<rect x="208" y="336" class="st0" width="40" height="16"/>
	</g>
</g>
<g>
	<g>
		<rect x="72" y="336" class="st0" width="120" height="16"/>
	</g>
</g>
</svg>
