<?xml version="1.0" encoding="utf-8"?>
<!-- Generator: Adobe Illustrator 22.1.0, SVG Export Plug-In . SVG Version: 6.00 Build 0)  -->
<svg version="1.1" id="Warstwa_1" xmlns="http://www.w3.org/2000/svg" xmlns:xlink="http://www.w3.org/1999/xlink" x="0px" y="0px"
	 viewBox="0 0 1406.7 914.4" style="enable-background:new 0 0 1406.7 914.4;" xml:space="preserve">
<style type="text/css">
	.st0{clip-path:url(#SVGID_2_);}
	.st1{opacity:0.4;fill:url(#Path_2_1_);enable-background:new    ;}
	.st2{opacity:0.4;fill:url(#Path_2_Copy_1_);enable-background:new    ;}
	.st3{opacity:0.16;fill:url(#Path_2-2_1_);enable-background:new    ;}
	.st4{opacity:0.16;fill:url(#Path_2_Copy-2_1_);enable-background:new    ;}
</style>
<title>Zasób 1</title>
<g id="Warstwa_2_1_">
	<g id="Warstwa_1-2">
		<g>
			<defs>
				<rect id="SVGID_1_" x="-5" y="-6.4" width="1436.3" height="853.8"/>
			</defs>
			<clipPath id="SVGID_2_">
				<use xlink:href="#SVGID_1_"  style="overflow:visible;"/>
			</clipPath>
			<g class="st0">
				<g id="Group_75">
					
						<linearGradient id="Path_2_1_" gradientUnits="userSpaceOnUse" x1="591.6942" y1="885.6033" x2="591.3441" y2="884.6033" gradientTransform="matrix(-1449.97 -24.65 -15.55 914.57 872069.8125 -794561.5)">
						<stop  offset="0" style="stop-color:#FF9944"/>
						<stop  offset="1" style="stop-color:#FC6076"/>
					</linearGradient>
					<path id="Path_2" class="st1" d="M1417.9,506.1c0,0-71.1-21.5-136-23.9s-110.8,37.4-216.1,93.2s-190.3,83.2-316.2,81
						s-299.1-80.7-452,24.7S-21.3,812.4-21.3,812.4l-1.2-889.7L1417.7-78L1417.9,506.1z"/>
					
						<linearGradient id="Path_2_Copy_1_" gradientUnits="userSpaceOnUse" x1="591.0615" y1="885.7106" x2="591.7015" y2="884.7206" gradientTransform="matrix(-1449.97 -24.65 -13.72 807.32 870450.9375 -699679.5)">
						<stop  offset="0" style="stop-color:#FF9944"/>
						<stop  offset="1" style="stop-color:#FD6C6B"/>
						<stop  offset="1" style="stop-color:#FC6076"/>
					</linearGradient>
					<path id="Path_2_Copy" class="st2" d="M1417.8,242.1l0.1,264c-18.5,19.2-20.2,101.8-221.2,78.7s-228.1-42.6-354-44.7
						s-225.6,67.5-396,143.7s-468.9-34.1-468.9-34.1l-0.3-726.9l1440.2-0.7L1417.8,242.1z"/>
					
						<linearGradient id="Path_2-2_1_" gradientUnits="userSpaceOnUse" x1="591.0875" y1="885.7159" x2="591.7175" y2="884.7259" gradientTransform="matrix(-1437.8101 0 0 890.2 851115.1875 -787558.0625)">
						<stop  offset="0" style="stop-color:#FACDC2"/>
						<stop  offset="1" style="stop-color:#FF9B9F"/>
						<stop  offset="1" style="stop-color:#FC6076"/>
					</linearGradient>
					<path id="Path_2-2" class="st3" d="M1305.2,460.4c-149.3-3.5-138.6,45.5-241.7,101.4s-186.6,83.9-311.1,83.9
						s-296.8-73.4-446.1,31.5S-21.9,812.3-21.9,812.3V-53.5L1401-77.9l8.6,482.4C1409.5,404.5,1454.5,463.9,1305.2,460.4z"/>
					
						<linearGradient id="Path_2_Copy-2_1_" gradientUnits="userSpaceOnUse" x1="591.0604" y1="885.6801" x2="591.7004" y2="884.6801" gradientTransform="matrix(-1442.11 0 0 669.8 853664.4375 -592599.125)">
						<stop  offset="0" style="stop-color:#FACDC2"/>
						<stop  offset="1" style="stop-color:#FF9B9F"/>
						<stop  offset="1" style="stop-color:#FC6076"/>
					</linearGradient>
					<path id="Path_2_Copy-2" class="st4" d="M1420.2,345.6c0,0-19.1,71.5-219.7,47s-227.9-48.3-353.4-48.3s-223.5,88.9-391.9,187.3
						S-21.7,497-21.7,497L-22-77.3L1412.2-102L1420.2,345.6z"/>
				</g>
			</g>
		</g>
	</g>
</g>
</svg>
