<?xml version="1.0" encoding="utf-8"?>
<!-- Generator: Adobe Illustrator 22.1.0, SVG Export Plug-In . SVG Version: 6.00 Build 0)  -->
<svg version="1.1" id="Capa_1" xmlns="http://www.w3.org/2000/svg" xmlns:xlink="http://www.w3.org/1999/xlink" x="0px" y="0px"
	 viewBox="0 0 480 480" style="enable-background:new 0 0 480 480;" xml:space="preserve">
<style type="text/css">
	.st0{fill:#FFFFFF;}
</style>
<g>
	<g>
		<path class="st0" d="M240,0C107.5,0,0,107.5,0,240s107.5,240,240,240s240-107.5,240-240C479.9,107.5,372.5,0.1,240,0z M240,464
			C116.3,464,16,363.7,16,240S116.3,16,240,16s224,100.3,224,224C463.9,363.7,363.7,463.9,240,464z"/>
	</g>
</g>
<g>
	<g>
		<path class="st0" d="M240,32C125.1,32,32,125.1,32,240s93.1,208,208,208s208-93.1,208-208C447.9,125.2,354.8,32.1,240,32z
			 M240,432c-106,0-192-86-192-192S134,48,240,48s192,86,192,192C431.9,346,346,431.9,240,432z"/>
	</g>
</g>
<g>
	<g>
		<rect x="56" y="232" class="st0" width="32" height="16"/>
	</g>
</g>
<g>
	<g>
		<rect x="392" y="232" class="st0" width="32" height="16"/>
	</g>
</g>
<g>
	<g>
		<rect x="78.5" y="316" transform="matrix(0.8661 -0.4999 0.4999 0.8661 -149.319 90.6283)" class="st0" width="32" height="16"/>
	</g>
</g>
<g>
	<g>
		
			<rect x="369.5" y="148" transform="matrix(0.8661 -0.4999 0.4999 0.8661 -26.3602 213.5984)" class="st0" width="32" height="16"/>
	</g>
</g>
<g>
	<g>
		<rect x="86.5" y="140" transform="matrix(0.4999 -0.8661 0.8661 0.4999 -87.8434 159.8649)" class="st0" width="16" height="32"/>
	</g>
</g>
<g>
	<g>
		
			<rect x="377.5" y="308" transform="matrix(0.4999 -0.8661 0.8661 0.4999 -87.7847 495.8954)" class="st0" width="16" height="32"/>
	</g>
</g>
<g>
	<g>
		<rect x="148" y="78.5" transform="matrix(0.8661 -0.4999 0.4999 0.8661 -26.3576 90.6239)" class="st0" width="16" height="32"/>
	</g>
</g>
<g>
	<g>
		<rect x="232" y="56" class="st0" width="16" height="32"/>
	</g>
</g>
<g>
	<g>
		<rect x="308" y="86.5" transform="matrix(0.4999 -0.8661 0.8661 0.4999 80.1895 327.864)" class="st0" width="32" height="16"/>
	</g>
</g>
<g>
	<g>
		
			<rect x="65.9" y="183.5" transform="matrix(0.2588 -0.9659 0.9659 0.2588 -134.0748 216.2236)" class="st0" width="16" height="24"/>
	</g>
</g>
<g>
	<g>
		
			<rect x="398.1" y="272.5" transform="matrix(0.2588 -0.9659 0.9659 0.2588 26.1787 603.1187)" class="st0" width="16" height="24"/>
	</g>
</g>
<g>
	<g>
		
			<rect x="110.4" y="106.4" transform="matrix(0.7071 -0.7071 0.7071 0.7071 -49.0317 118.3784)" class="st0" width="16" height="24"/>
	</g>
</g>
<g>
	<g>
		
			<rect x="187.4" y="61.9" transform="matrix(0.9659 -0.2588 0.2588 0.9659 -12.4587 53.0999)" class="st0" width="16" height="24"/>
	</g>
</g>
<g>
	<g>
		
			<rect x="272.5" y="65.9" transform="matrix(0.2588 -0.9659 0.9659 0.2588 139.4789 329.5894)" class="st0" width="24" height="16"/>
	</g>
</g>
<g>
	<g>
		
			<rect x="349.6" y="110.4" transform="matrix(0.7071 -0.7071 0.7071 0.7071 22.1957 290.3828)" class="st0" width="24" height="16"/>
	</g>
</g>
<g>
	<g>
		
			<rect x="394.2" y="187.5" transform="matrix(0.9659 -0.2588 0.2588 0.9659 -36.7522 111.7821)" class="st0" width="24" height="16"/>
	</g>
</g>
<g>
	<g>
		<rect x="61.9" y="276.5" transform="matrix(0.9659 -0.2588 0.2588 0.9659 -71.1179 28.808)" class="st0" width="24" height="16"/>
	</g>
</g>
<g>
	<g>
		<path class="st0" d="M273.9,108.4c-72.7-18.7-146.9,25-165.6,97.8c-8.9,34.5-3.9,71,13.9,101.9c2.3,3.8,7.3,4.9,11,2.6
			c3.6-2.2,4.8-6.9,2.8-10.6c-33.1-57.4-13.4-130.8,44-163.9s130.8-13.4,163.9,44c15.7,27.2,20.1,59.5,12.2,89.9
			c-1.1,4.3,1.5,8.6,5.8,9.8s8.6-1.5,9.8-5.8v0C390.5,201.3,346.7,127.1,273.9,108.4z"/>
	</g>
</g>
<g>
	<g>
		<path class="st0" d="M357.1,297.8l-88-72c-0.2-0.1-0.5-0.3-0.7-0.4c-8-15.7-27.3-21.9-42.9-13.9c-15.7,8-21.9,27.3-13.9,42.9
			c5.2,10.1,15.3,16.7,26.6,17.3l111.2,39.7c0.9,0.3,1.8,0.5,2.7,0.5c4.4,0,8-3.6,8-8C360,301.6,358.9,299.3,357.1,297.8z M240,256
			c-8.8,0-16-7.2-16-16s7.2-16,16-16s16,7.2,16,16S248.8,256,240,256z M261.8,263.3c4.4-4.1,7.6-9.5,9.1-15.3l40.3,33L261.8,263.3z"
			/>
	</g>
</g>
<g>
	<g>
		<path class="st0" d="M272,320h-64c-22.1,0-40,17.9-40,40s17.9,40,40,40h64c22.1,0,40-17.9,40-40S294.1,320,272,320z M272,384h-64
			c-13.3,0-24-10.7-24-24s10.7-24,24-24h64c13.3,0,24,10.7,24,24S285.3,384,272,384z"/>
	</g>
</g>
<g>
	<g>
		<path class="st0" d="M224,352h-16c-4.4,0-8,3.6-8,8s3.6,8,8,8h16c4.4,0,8-3.6,8-8S228.4,352,224,352z"/>
	</g>
</g>
<g>
	<g>
		<path class="st0" d="M272,352h-16c-4.4,0-8,3.6-8,8s3.6,8,8,8h16c4.4,0,8-3.6,8-8S276.4,352,272,352z"/>
	</g>
</g>
</svg>
