<svg xmlns="http://www.w3.org/2000/svg" xmlns:xlink="http://www.w3.org/1999/xlink" viewBox="0 0 1442.7 914.4"><defs><style>.cls-1{fill:none;}.cls-2{clip-path:url(#clip-path);}.cls-3,.cls-4{opacity:0.4;}.cls-3,.cls-4,.cls-5,.cls-6{isolation:isolate;}.cls-3{fill:url(#Gradient_bez_nazwy);}.cls-4{fill:url(#Gradient_bez_nazwy_2);}.cls-5,.cls-6{opacity:0.16;}.cls-5{fill:url(#Gradient_bez_nazwy_4);}.cls-6{fill:url(#Gradient_bez_nazwy_4-2);}</style><clipPath id="clip-path"><rect class="cls-1" x="17.5" y="95.6" width="1436.3" height="853.8"/></clipPath><linearGradient id="Gradient_bez_nazwy" x1="829.84" y1="112.37" x2="829.49" y2="113.37" gradientTransform="matrix(-1449.97, -24.65, 15.55, -914.57, 1201881.8, 124128.04)" gradientUnits="userSpaceOnUse"><stop offset="0" stop-color="#f94"/><stop offset="1" stop-color="#fc6076"/></linearGradient><linearGradient id="Gradient_bez_nazwy_2" x1="829.21" y1="112.26" x2="829.85" y2="113.25" gradientTransform="matrix(-1449.97, -24.65, 13.72, -807.32, 1202089.19, 111974.55)" gradientUnits="userSpaceOnUse"><stop offset="0" stop-color="#f94"/><stop offset="1" stop-color="#fd6c6b"/><stop offset="1" stop-color="#fc6076"/></linearGradient><linearGradient id="Gradient_bez_nazwy_4" x1="829.24" y1="112.26" x2="829.87" y2="113.25" gradientTransform="translate(1193551.95 100943.57) rotate(180) scale(1437.81 890.2)" gradientUnits="userSpaceOnUse"><stop offset="0" stop-color="#facdc2"/><stop offset="1" stop-color="#ff9b9f"/><stop offset="1" stop-color="#fc6076"/></linearGradient><linearGradient id="Gradient_bez_nazwy_4-2" x1="829.21" y1="112.29" x2="829.85" y2="113.29" gradientTransform="translate(1197124.68 75943.27) rotate(180) scale(1442.11 669.8)" xlink:href="#Gradient_bez_nazwy_4"/></defs><title>Zasób 1</title><g id="Warstwa_2" data-name="Warstwa 2"><g id="Warstwa_1-2" data-name="Warstwa 1"><g class="cls-2"><g id="Group_75" data-name="Group 75"><path id="Path_2" data-name="Path 2" class="cls-3" d="M1440.4,608.1s-71.1-21.5-136-23.9-110.8,37.4-216.1,93.2-190.3,83.2-316.2,81-299.1-80.7-452,24.7S1.2,914.4,1.2,914.4L0,24.7,1440.2,24Z"/><path id="Path_2_Copy" data-name="Path 2 Copy" class="cls-4" d="M1440.3,344.1l.1,264c-18.5,19.2-20.2,101.8-221.2,78.7s-228.1-42.6-354-44.7-225.6,67.5-396,143.7S.3,751.7.3,751.7L0,24.8l1440.2-.7Z"/><path id="Path_2-2" data-name="Path 2-2" class="cls-5" d="M1327.7,562.4c-149.3-3.5-138.6,45.5-241.7,101.4s-186.6,83.9-311.1,83.9-296.8-73.4-446.1,31.5S.6,914.3.6,914.3V48.5L1423.5,24.1l8.6,482.4C1432,506.5,1477,565.9,1327.7,562.4Z"/><path id="Path_2_Copy-2" data-name="Path 2 Copy-2" class="cls-6" d="M1442.7,447.6s-19.1,71.5-219.7,47-227.9-48.3-353.4-48.3S646.1,535.2,477.7,633.6.8,599,.8,599L.5,24.7,1434.7,0Z"/></g></g></g></g></svg>