<svg xmlns="http://www.w3.org/2000/svg" xmlns:xlink="http://www.w3.org/1999/xlink" viewBox="0 0 1465.714 939.736">
  <defs>
    <style>
      .cls-1, .cls-2 {
        opacity: 0.4;
      }

      .cls-1 {
        fill: url(#linear-gradient);
      }

      .cls-2 {
        fill: url(#linear-gradient-2);
      }

      .cls-3 {
        opacity: 0.16;
        fill: url(#linear-gradient-3);
      }
    </style>
    <linearGradient id="linear-gradient" x1="0.671" x2="0.327" y2="1" gradientUnits="objectBoundingBox">
      <stop offset="0" stop-color="#f94"/>
      <stop offset="1" stop-color="#fc6076"/>
    </linearGradient>
    <linearGradient id="linear-gradient-2" x1="0.171" y1="-0.142" x2="0.809" y2="0.852" gradientUnits="objectBoundingBox">
      <stop offset="0" stop-color="#f94"/>
      <stop offset="1" stop-color="#fd6c6b"/>
      <stop offset="1" stop-color="#fc6076"/>
    </linearGradient>
    <linearGradient id="linear-gradient-3" x1="0.171" y1="-0.142" x2="0.809" y2="0.852" gradientUnits="objectBoundingBox">
      <stop offset="0" stop-color="#facdc2"/>
      <stop offset="1" stop-color="#ff9b9f"/>
      <stop offset="1" stop-color="#fc6076"/>
    </linearGradient>
  </defs>
  <g id="Group_75" data-name="Group 75" transform="translate(15.523 25.128)">
    <path id="Path_2" data-name="Path 2" class="cls-1" d="M123.79,330.659s71.43,20.333,136.4,21.623,110.153-39.229,214.471-96.8S663.511,169.12,789.413,169.12s300.365,75.564,451.447-32.385S1557.411,0,1557.411,0l16.351,889.438L133.982,914.57Z" transform="matrix(-1, -0.017, 0.017, -1, 1558, 916.769)"/>
    <path id="Path_2_Copy" data-name="Path 2 Copy" class="cls-2" d="M308.427,487.05,303.82,223.09c18.123-19.507,18.44-102.13,219.781-82.445s228.828,38.8,354.73,38.8S1102.747,108.105,1271.815,29.1s469.294,26.109,469.294,26.109l12.684,726.664L314.012,807Z" transform="matrix(-1, -0.017, 0.017, -1, 1739.88, 812.359)"/>
    <path id="Path_2-2" data-name="Path 2" class="cls-3" d="M228.709,349.645c149.308,3.5,138.643-45.454,241.736-101.4S657.08,164.333,781.5,164.333s296.838,73.425,446.145-31.468S1555.848-2.2,1555.848-2.2V863.58L132.975,888l-8.565-482.438S79.4,346.149,228.709,349.645Z" transform="translate(1555.848 888) rotate(180)"/>
    <path id="Path_2_Copy-2" data-name="Path 2 Copy" class="cls-3" d="M303.087,222.228s19.1-71.534,219.657-47.011S750.683,223.556,876.1,223.556s223.545-88.876,391.956-187.3S1744.92,70.818,1744.92,70.818L1745.2,645.1,311.014,669.773Z" transform="translate(1745.202 645.773) rotate(180)"/>
  </g>
</svg>
