<svg xmlns="http://www.w3.org/2000/svg" viewBox="0 0 198.68 78.63"><defs><style>.cls-1{fill:#71dbb7;}</style></defs><title>Zasób 1</title><g id="Warstwa_2" data-name="Warstwa 2"><g id="Objets"><path class="cls-1" d="M31,77.77A39.32,39.32,0,0,0,61.47,7l-.84-.56c-.28-.19-.58-.37-.86-.54a1.43,1.43,0,0,0-.27-.15A39,39,0,0,0,42.16.11H42.1A39.34,39.34,0,0,0,6.79,17c-.18.28-.37.57-.56.84s-.28.43-.41.65-.35.56-.51.85A39,39,0,0,0,1,47.82,35.2,35.2,0,0,1,22.13,20.4a35.12,35.12,0,0,1,20.82-2s-22.29,5.49-17.9,14.85c-2.45,3.15-4.76,5.12-2.29,8.38,0,0,15.51-9.55,26.24-2.59,9.19,6,7,33.27-18,38.74Z"/><path d="M102.72,19.94c0,5.73-2.46,8.18-8.18,8.18s-8.18-2.45-8.18-8.18,2.45-8.18,8.18-8.18S102.72,14.21,102.72,19.94Zm-4.65,0c0-3.4-1.06-4.86-3.53-4.86S91,16.54,91,19.94s1.06,4.87,3.54,4.87S98.07,23.35,98.07,19.94Z"/><path d="M113.55,22.15v5.53h-4.42V12.2h7.3c4.42,0,6.19,2.43,6.19,5.09a4.31,4.31,0,0,1-3.05,4.42l3.49,6h-4.64l-3-5.53Zm2.66-2.87a1.86,1.86,0,0,0,2-2,1.86,1.86,0,0,0-2-2h-2.66v4Z"/><path d="M140.75,27.68H130.14V21l-2,1.17V19.28l2-1.17V12.2h4.42v3.32l3.76-2.21v2.87l-3.76,2.21v6h6.19Z"/><path d="M153.58,27.68h-4.21V21.93l-5.52-9.73h4.86l2.76,5.53,2.77-5.53h4.64l-5.3,9.73Z"/><path d="M99.62,42.41c0,3.56-2,5.08-6.63,5.08S86.36,46,86.36,42.63h4c0,1.39.79,2,2.65,2,1.7,0,2.43-.46,2.43-1.55,0-3.09-8.84-1.32-8.84-6.85,0-3.56,1.92-5.09,6.41-5.09S99.4,32.59,99.4,36h-4c0-1.4-.73-2-2.43-2-1.55,0-2.21.46-2.21,1.55C90.78,38,99.62,36.44,99.62,42.41Z"/><path d="M121.73,39.31c0,5.73-2.45,8.18-8.18,8.18s-8.18-2.45-8.18-8.18,2.46-8.18,8.18-8.18S121.73,33.59,121.73,39.31Zm-4.64,0c0-3.4-1.06-4.86-3.54-4.86S110,35.91,110,39.31s1.06,4.87,3.53,4.87S117.09,42.72,117.09,39.31Z"/><path d="M132.57,37.21l4.64-5.63h5.31l-6.19,7.51,6.63,8h-5.31L132.57,41v6.1h-4.42V31.58h4.42Z"/><path d="M162.86,39.31c0,5.73-2.45,8.18-8.18,8.18S146.5,45,146.5,39.31s2.45-8.18,8.18-8.18S162.86,33.59,162.86,39.31Zm-4.64,0c0-3.4-1.06-4.86-3.54-4.86s-3.54,1.46-3.54,4.86,1.06,4.87,3.54,4.87S158.22,42.72,158.22,39.31Z"/><path d="M180.55,47.05H169.94v-6.7l-2,1.17V38.65l2-1.17v-5.9h4.42v3.31l3.76-2.21v2.88l-3.76,2.21v6h6.19Z"/><path d="M193.38,47.05h-4.2V41.3l-5.53-9.72h4.86l2.77,5.52L194,31.58h4.64l-5.3,9.72Z"/><path d="M100.73,51V66.43H96.31V59.79H91.44v6.64H87V51h4.42v5.53h4.87V51Z"/><path d="M112.23,54v2.88h6.19V60h-6.19v3.32h7.07v3.1H107.8V51h11.5V54Z"/><path d="M129.92,60.9v5.53h-4.43V51h7.3C137.21,51,139,53.38,139,56a4.32,4.32,0,0,1-3,4.43l3.49,6h-4.64l-3.05-5.53ZM132.57,58a2,2,0,1,0,0-4h-2.65v4Z"/><path d="M160.87,58.69c0,5.72-2.45,8.18-8.18,8.18s-8.18-2.46-8.18-8.18,2.45-8.18,8.18-8.18S160.87,53,160.87,58.69Zm-4.64,0c0-3.41-1.06-4.87-3.54-4.87s-3.54,1.46-3.54,4.87,1.06,4.86,3.54,4.86S156.23,62.09,156.23,58.69Z"/><path d="M179.89,61.78c0,3.56-2,5.09-6.64,5.09s-6.63-1.46-6.63-4.87h4c0,1.4.8,2,2.65,2s2.44-.46,2.44-1.54c0-3.1-8.85-1.33-8.85-6.86,0-3.56,1.93-5.08,6.41-5.08s6.42,1.45,6.42,4.86h-4c0-1.39-.73-2-2.44-2-1.54,0-2.21.46-2.21,1.55C171,57.36,179.89,55.81,179.89,61.78Z"/><path d="M190.72,51V66.43H186.3V51Z"/></g></g></svg>